<svg width="28" height="27" viewBox="0 0 28 27" fill="none" xmlns="http://www.w3.org/2000/svg">
<path d="M13.3022 2.63669C12.2433 2.63669 11.2552 2.6648 10.2537 3.05462C9.2147 3.45907 8.27462 3.99474 7.26872 4.46039C5.79619 5.14204 3.90569 6.34747 3.21674 7.87982C2.69169 9.04762 2.23856 10.3115 1.88301 11.5399C1.65617 12.3236 1.75599 13.1889 1.75599 13.9968C1.75599 14.7423 1.60544 15.6553 1.87031 16.3651C2.16619 17.1579 2.31371 18.0697 2.56258 18.8916C2.96175 20.21 4.33287 21.2822 5.56663 21.8235C7.30104 22.5844 9.09001 23.2489 10.8507 23.9511C12.1905 24.4855 13.6482 24.6421 15.0615 24.806C16.6495 24.9901 17.8261 24.5138 19.1706 23.5965C19.758 23.1958 20.2405 22.6868 20.8092 22.2668C22.0239 21.3697 23.3798 20.645 24.2642 19.3792C25.14 18.1258 25.2185 16.8373 25.6487 15.4279C25.9087 14.5762 26.3346 13.948 26.3346 13.0343C26.3346 12.4183 26.339 11.8603 26.1695 11.2613C25.9343 10.4299 25.5961 9.63387 25.3566 8.80433C25.0847 7.86263 24.9197 7.01874 24.2896 6.23342C23.4841 5.22957 22.3859 4.47287 21.2792 3.82083C19.8572 2.98305 18.4757 2.18779 16.808 2.07312C15.2029 1.96275 13.6721 2.03159 12.159 2.40873" stroke="black" stroke-width="2.5184" stroke-linecap="round"/>
<path d="M11.2357 23.3438C10.8186 23.2018 10.7787 21.7768 10.7008 21.3614C10.5187 20.3894 10.3863 19.4455 10.2841 18.464C10.058 16.2922 9.98299 13.7241 10.62 11.6271C10.7499 11.1995 10.8418 10.7358 11.2357 10.4771C11.7748 10.123 12.2104 9.49568 12.8279 9.30158C13.276 9.16071 13.9111 9.27617 14.3703 9.27617C14.8016 9.27617 15.4584 9.1404 15.8257 9.39054" stroke="black" stroke-width="2.5184" stroke-linecap="round"/>
<path d="M8.01892 17.3386C8.08322 17.0855 9.04943 16.9242 9.22631 16.882C10.4386 16.5927 11.7326 16.4379 12.9819 16.4379C13.7619 16.4379 14.4575 16.6631 15.2251 16.6631" stroke="black" stroke-width="2.5184" stroke-linecap="round"/>
</svg>
