<svg width="28" height="25" viewBox="0 0 28 25" fill="none" xmlns="http://www.w3.org/2000/svg">
<path d="M15.9755 2.36982C13.6484 1.40101 10.8588 1.7947 8.49459 2.4351C7.29722 2.75944 6.08932 2.65134 4.88068 2.86594C1.69162 3.43215 2.1016 8.1875 2.36976 10.5557C2.60163 12.6035 2.70464 14.6433 2.92125 16.6919C3.00475 17.4816 3.34239 18.1955 3.36245 19.0027C3.3805 19.7292 3.92088 20.3593 3.94638 21.0264C3.97179 21.6909 5.167 22.0764 5.71765 22.1687C7.18447 22.4147 8.68986 22.3795 10.1685 22.5147C11.5328 22.6395 12.9391 22.7511 14.308 22.8085C16.0879 22.8831 17.8459 23.0781 19.6348 23.05C21.0271 23.0281 22.0521 22.4845 23.2098 21.8293C24.4576 21.1231 25.4126 20.6183 25.6428 19.055C25.8045 17.9574 25.7856 16.8199 25.7856 15.7127C25.7856 14.7974 25.8244 13.7366 25.5001 12.8666C24.6554 10.6002 24.668 8.1906 23.9819 5.86874C23.7785 5.18052 23.4908 4.36695 23.1579 3.73414C22.8491 3.14741 21.9305 2.91997 21.3412 2.72232C20.7022 2.50802 19.8571 2.38317 19.1806 2.36982C18.727 2.36087 18.3071 2.15811 17.8441 2.13482C16.797 2.08215 15.754 2.01732 14.6908 2.01732" stroke="black" stroke-width="2.5184" stroke-linecap="round"/>
<path d="M12.5468 8.0813C11.5228 8.19523 10.4087 9.28166 9.88089 10.0947C9.27748 11.0242 8.89183 11.4147 8.89183 12.5607C8.89183 13.5002 8.84931 14.7521 9.36998 15.5776C9.88943 16.4011 11.5151 17.8207 12.5075 18.0239C13.377 18.202 14.1295 18.0299 14.9834 17.9058C15.3603 17.8511 15.7333 17.9207 16.0838 17.7353C16.5116 17.509 16.7504 17.0521 17.2104 16.8696C18.6278 16.3073 18.7955 14.2466 18.7955 12.8624C18.7955 11.3924 18.6632 10.2967 17.6231 9.25526C16.8586 8.48979 16.0545 7.75913 14.9048 7.72715C13.918 7.6997 12.9236 7.48526 11.9573 7.72715" stroke="black" stroke-width="2.5184" stroke-linecap="round"/>
<path d="M19.9608 5.95344C19.8301 5.96863 19.7239 6.08959 19.7204 6.06519C19.7007 5.92811 19.3518 5.79297 19.3798 5.90998C19.4849 6.34972 20.3344 6.09613 19.7204 5.95344" stroke="black" stroke-width="2.5184" stroke-linecap="round"/>
</svg>
