<svg width="26" height="29" viewBox="0 0 26 29" fill="none" xmlns="http://www.w3.org/2000/svg">
<path d="M8.59234 14.4941C8.05513 14.4941 7.5435 14.3657 7.00318 14.3657C6.12606 14.3657 5.37729 14.5731 4.54069 14.8153C3.16946 15.2123 2.15692 16.7435 1.79187 18.063C1.59225 18.7845 1.76324 19.7071 1.76324 20.4613C1.76324 21.6121 2.05206 22.5221 2.60077 23.4948C3.12313 24.4207 3.54457 25.1757 4.41184 25.8003C5.21217 26.3766 6.21011 26.9784 7.18214 27.2207C7.7267 27.3564 8.22835 27.6489 8.79277 27.7132C9.44281 27.7873 10.129 27.7275 10.7828 27.7275C12.1201 27.7275 13.6231 27.2895 14.8344 26.6996C16.0006 26.1317 16.9026 25.4776 17.8696 24.6511C18.4979 24.1141 18.8388 22.9642 19.0579 22.1743C19.6243 20.1326 19.7822 18.2235 19.3585 16.1715C18.9674 14.2769 19.0342 12.3038 18.7143 10.3899C18.5675 9.51176 18.3795 8.6681 18.1273 7.81323C17.954 7.22572 17.6673 6.5087 17.7408 5.88605C17.8362 5.07703 19.3592 6.65149 19.4444 6.68547C19.7954 6.82547 20.0301 7.20945 20.3464 7.42779C20.7044 7.67492 21.0405 7.79962 21.413 8.00595C21.7887 8.21408 22.7907 8.43629 23.0737 7.93457C23.2325 7.65315 23.4604 7.17059 23.5319 6.84964C23.6093 6.50236 23.7967 6.09804 23.7967 5.75757C23.7967 4.99241 22.8264 4.57503 22.1503 4.31575C21.6383 4.1194 21.2349 3.75718 20.7616 3.50205C20.0398 3.11302 19.3166 2.74872 18.5926 2.36002C17.9245 2.00132 16.7458 2.16016 16.0013 2.16016C15.5719 2.16016 15.0193 2.0372 14.7199 2.41712C14.4521 2.75694 14.156 3.54553 14.1329 3.95886C14.0848 4.82193 14.0713 5.77025 14.2546 6.59268C14.438 7.41533 14.5006 8.27995 14.5195 9.12657C14.5339 9.77437 14.5176 10.6665 14.7128 11.2893C14.8904 11.8561 14.7175 12.4742 14.8774 13.0523C15.1304 13.9669 14.906 15.2661 14.906 16.2215C14.906 17.1398 14.906 18.0582 14.906 18.9766C14.906 20.711 13.4402 22.5883 11.6561 22.5883C11.0291 22.5883 10.3213 22.6947 9.72336 22.4884C9.38769 22.3725 9.14424 22.1435 8.79993 22.0672C8.22655 21.9402 7.49997 21.428 6.98886 21.1037C5.7394 20.3108 5.77277 17.9631 7.46131 17.9631C8.83635 17.9631 11.8136 18.4366 11.8136 16.2286C11.8136 15.2547 11.7218 15.1713 10.9117 14.7225C10.1523 14.3019 9.73928 14.1087 8.85004 14.1087" stroke="white" stroke-width="2.5184" stroke-linecap="round"/>
</svg>
