<svg width="35" height="26" viewBox="0 0 35 26" fill="none" xmlns="http://www.w3.org/2000/svg">
<path d="M12.9755 8.65768C12.9755 11.4604 12.9755 14.2632 12.9755 17.0659C12.9755 17.5078 12.9755 17.9496 12.9755 18.3915C12.9755 19.0097 13.5209 18.895 14.0294 19.0063C15.396 19.3052 17.4522 17.2872 18.3559 16.5024C18.8619 16.0629 19.3349 15.5135 19.8913 15.1576C20.348 14.8654 21.1591 14.1498 21.3811 13.6399C21.5355 13.2853 21.6414 13.0566 21.6414 12.6665C21.6414 12.1938 21.1273 11.9683 20.8086 11.6547C20.4284 11.2804 19.9019 11.1787 19.5139 10.835C19.0435 10.4182 18.5178 9.74235 17.92 9.49018C17.1907 9.18255 13.6136 6.77324 13.0926 8.31187" stroke="white" stroke-width="2.5184" stroke-linecap="round"/>
<path d="M2.11537 5.21104C2.11537 8.79898 1.37736 12.3955 1.97635 15.9887C2.14487 16.9996 2.29299 17.9504 2.57032 18.9453C2.69451 19.3908 2.70471 20.1833 2.97473 20.5689C3.4821 21.2936 3.89522 22.4401 4.78822 22.8369C5.64749 23.2187 6.64172 23.3093 7.53691 23.6076C9.98559 24.4237 12.4672 24.0622 15.0184 24.2268C18.2669 24.4363 21.4978 24.4289 24.7557 24.4289C26.4142 24.4289 28.3455 24.757 29.8613 23.9235C30.4158 23.6185 30.9834 23.3347 31.5357 23.0264C31.9818 22.7775 31.8749 22.4768 32.0855 22.0978C32.4782 21.391 32.5706 20.2586 32.7363 19.4633C32.9567 18.4056 32.8248 17.2407 32.8248 16.1656C32.8248 14.6194 32.9532 13.0148 32.7995 11.478C32.6981 10.4646 32.4992 9.45206 32.4836 8.43297C32.4705 7.58348 32.2561 6.50711 31.858 5.74171C30.959 4.01327 29.4387 3.36112 27.637 2.98728C24.3241 2.29984 21.0161 2.00039 17.6344 2.02702C16.5119 2.03585 15.4685 2.18406 14.3865 2.43134C13.2826 2.6836 12.0731 2.59559 10.9491 2.59559C9.12352 2.59559 7.22344 2.65632 5.42642 2.98728C4.23879 3.20601 2.46695 3.93945 1.88789 5.09733" stroke="white" stroke-width="2.5184" stroke-linecap="round"/>
</svg>
